<?xml version="1.0" encoding="utf-8"?>
<!DOCTYPE svg PUBLIC "-//W3C//DTD SVG 1.1//EN" "http://www.w3.org/Graphics/SVG/1.1/DTD/svg11.dtd">
<svg
    xmlns="http://www.w3.org/2000/svg"
    width="116px"
    height="135px">
    <g>
        <linearGradient id="GRA_RED" gradientUnits="userSpaceOnUse" x1="3" y1="60" x2="106" y2="60">
			<stop  offset="0" style="stop-color:#FF897A"/>
			<stop  offset="1" style="stop-color:#FF3400"/>
		</linearGradient>
		<path opacity="0.25" d="M109.166,35.278v77.655l-0.169,0.613c0,10.262-21.892,18.58-48.899,18.58
			c-27.007,0-48.898-8.318-48.898-18.58c0-0.207-0.006-0.41,0.012-0.613V35.426c8.615,6.975,27.267,11.805,48.887,11.805
			C81.87,47.231,100.631,42.333,109.166,35.278z"/>
		<ellipse opacity="0.25" cx="60.182" cy="24.381" rx="48.899" ry="18.583"/>
		<path fill="url(#GRA_RED)" stroke="#6F0000" d="M105.575,32.886v77.654l-0.17,0.613
			c0,10.262-21.891,18.58-48.898,18.58s-48.898-8.318-48.898-18.58c0-0.205-0.006-0.41,0.012-0.613V33.034
			c8.615,6.975,27.266,11.805,48.887,11.805C78.278,44.839,97.04,39.941,105.575,32.886z"/>
        <ellipse fill="url(#GRA_RED)" stroke="#6F0000" cx="56.59" cy="21.989" rx="48.899" ry="18.583"/>
	</g>
</svg>
