<?xml version="1.0" encoding="utf-8"?>
<!DOCTYPE svg PUBLIC "-//W3C//DTD SVG 1.1//EN" "http://www.w3.org/Graphics/SVG/1.1/DTD/svg11.dtd">
<svg
    xmlns="http://www.w3.org/2000/svg"
    width="130px"
    height="123px">
    <g>
        <linearGradient id="GRA_RED" gradientUnits="userSpaceOnUse" x1="3" y1="60" x2="122" y2="60">
			<stop  offset="0" style="stop-color:#FF897A"/>
			<stop  offset="1" style="stop-color:#FF3400"/>
		</linearGradient>
		<path opacity="0.25" d="M66.77,97.773l-29.76,21.621c-5.72,4.155-11.191,0.181-9.009-6.546L39.37,77.866
			L9.612,56.245c-5.72-4.157-3.631-10.588,3.44-10.59l36.783-0.001l11.367-34.98c2.185-6.727,8.947-6.727,11.134,0l11.368,34.98
			l36.781,0.001c7.071,0.002,9.162,6.433,3.441,10.59L94.17,77.866l11.363,34.982c2.187,6.727-3.286,10.701-9.007,6.546
			L66.77,97.773z"/>
		<path fill="url(#GRA_RED)" stroke="#6F0000" d="M63.178,95.382l-29.76,21.621
			c-5.719,4.154-11.191,0.18-9.008-6.547l11.367-34.982L6.02,53.853c-5.719-4.156-3.631-10.588,3.441-10.59h36.783l11.367-34.98
			c2.184-6.727,8.947-6.727,11.133,0l11.369,34.98h36.781c7.07,0.002,9.162,6.434,3.441,10.59L90.579,75.474l11.363,34.982
			c2.188,6.727-3.285,10.701-9.006,6.547L63.178,95.382z"/>
	</g>
</svg>
