<?xml version="1.0" encoding="utf-8"?>
<!DOCTYPE svg PUBLIC "-//W3C//DTD SVG 1.1//EN" "http://www.w3.org/Graphics/SVG/1.1/DTD/svg11.dtd">
<svg
    xmlns="http://www.w3.org/2000/svg"
    width="200px"
    height="210px">
  <metadata id="license">
    <rdf:RDF>
      <cc:Work rdf:about="">
        <dc:format>image/svg+xml</dc:format>
        <dc:type rdf:resource="http://purl.org/dc/dcmitype/StillImage" />
        <dc:title></dc:title>
        <dc:date>2020/03/24</dc:date>
        <dc:creator>
          <cc:Agent>
            <dc:title>Chiara Fasano</dc:title>
          </cc:Agent>
        </dc:creator>
        <cc:license rdf:resource="https://creativecommons.org/publicdomain/zero/1.0/" />
      </cc:Work>
      <cc:License rdf:about="https://creativecommons.org/publicdomain/zero/1.0/">
        <cc:permits rdf:resource="https://creativecommons.org/ns#Reproduction" />
        <cc:permits rdf:resource="https://creativecommons.org/ns#Distribution" />
        <cc:permits rdf:resource="https://creativecommons.org/ns#DerivativeWorks" />
      </cc:License>
    </rdf:RDF>
  </metadata>
  <path
        d="m 108,203 c -1.78,-2.78 -3.90,-9.98 -4.69,-15.99 -2.12,-16.08 -1.79,-27.26 -6.17,-27.26 -5.35,0 -9.37,12.52 -10.91,22.53 -2.76,18.01 -17.14,15.65 -18.17,-2.14 0.34,-12.13 14.04,-25.75 -1.81,-17.97 -10.81,3.82 -15.54,3.88 -18.60,0.10 -6.60,-10.84 31.46,-27.75 14.93,-27.28 -32.69,3.55 -23.77,-11.36 -9.08,-13.82 30.73,-6.98 -9.22,-13.65 -1.52,-24.95 6.59,-6.56 16.36,5.34 16.36,0.28 0,-4.35 -4.75,-6.84 -15.25,-17.03 -13.93,-13.52 -18.25,-21.38 -15.59,-28.32 2.14,-5.59 12.17,-1.86 21.83,8.11 5.50,5.64 17.86,36.38 28.37,23.68 4.36,-10.27 -4.28,-15.72 -11.69,-26.96 -6.58,-9.98 4.40,-14.40 11.72,-6.50 6.66,7.18 8.60,1.90 12.26,-4.11 3.18,-7.42 9.88,-12.70 10.63,2.44 -0.33,6.09 -1.59,11.70 4.85,15.39 11.99,-4.93 6.23,-16.36 12.01,-20.52 3.72,-2.74 11.95,-5.58 11.95,6.38 0,5.34 -2.82,12.70 2.28,14.66 6.54,2.38 9.96,-5.65 18.74,-10.35 11.25,-9.52 16.48,-8.01 18.74,-5.76 2.25,2.25 3.81,6.80 -6.70,11.45 -15.40,8.77 -25.01,20.74 -20.60,24.34 5.82,7.05 16.70,-0.39 20.35,-2.48 8.29,-4.73 18.42,0.94 -1.50,18.10 -7.51,6.26 -10.55,8.91 -10.55,12.45 2.12,5.25 12.27,3.45 19.84,2.26 10.59,-1.66 18.47,3.58 18.47,8.54 0,3.28 -2.91,5.19 -12.58,8.25 -15.71,4.97 -16.20,9.04 -1.66,13.65 6.88,2.18 11.18,4.87 11.64,7.29 0.62,3.27 -1.03,3.82 -11.53,3.82 -8.65,0 -22.81,-2.77 -23.67,-0.55 -1.77,4.62 11.29,12.13 24.25,22.34 11.80,9.29 14.12,15.69 6.23,17.21 -8.22,1.58 -14.48,-1.97 -19.98,-11.35 -10.88,-18.56 -20.97,-22.12 -23.03,-8.10 -1.43,9.79 -5.46,10.81 -9.77,2.47 -3.92,-7.58 -6.58,-8.46 -8.74,-2.87 -1.39,3.60 -1.65,3.59 -4.46,-0.21 -6.65,-9.04 -10.15,3.36 -4.98,17.66 4.48,12.41 -5.51,21.54 -12.20,11.13 z M 5,117 c -2.075,-3.35 0.90,-6.70 8.94,-10.06 7.84,-3.27 24.96,-4.18 24.96,-1.32 0,2.43 -23.28,13.58 -28.36,13.58 -2.30,0 -4.80,-0.98 -5.55,-2.18 z M 98,23 c -3,-13 -3,-21 0,-20 3,1 5,9 3,21 l -1,11 z" fill="#FF0000"/>
</svg>
