<?xml version="1.0" encoding="utf-8"?>
<!DOCTYPE svg PUBLIC "-//W3C//DTD SVG 1.1//EN" "http://www.w3.org/Graphics/SVG/1.1/DTD/svg11.dtd">
<svg
    xmlns="http://www.w3.org/2000/svg"
    width="121px"
    height="95px">
    <g>
        <linearGradient id="GRA_GREY" gradientUnits="userSpaceOnUse" x1="3" y1="60" x2="122" y2="60">
			<stop  offset="0" style="stop-color:#BEBEBE"/>
			<stop  offset="1" style="stop-color:#6A6A6A"/>
		</linearGradient>
        <path opacity="0.25" d="M55.794,32.803h56.24
			c1.237,0,2.325,1.086,2.325,2.326v25.252c0,1.236-1.088,2.326-2.325,2.326h-56.24v26.146c0,2.49-1.988,3.391-3.86,1.746
			L4.593,49.002c-1.097-0.963-1.097-2.529,0-3.494l47.34-41.6c1.872-1.643,3.86-0.744,3.86,1.748V32.803z"/>
        <path fill="url(#GRA_GREY)" stroke="#414141" d="M55.794,32.803h56.24
			c1.237,0,2.325,1.086,2.325,2.326v25.252c0,1.236-1.088,2.326-2.325,2.326h-56.24v26.146c0,2.49-1.988,3.391-3.86,1.746
			L4.593,49.002c-1.097-0.963-1.097-2.529,0-3.494l47.34-41.6c1.872-1.643,3.86-0.744,3.86,1.748V32.803z"/>
	</g>
</svg>
