<?xml version="1.0" encoding="utf-8"?>
<!DOCTYPE svg PUBLIC "-//W3C//DTD SVG 1.1//EN" "http://www.w3.org/Graphics/SVG/1.1/DTD/svg11.dtd">
<svg
    xmlns="http://www.w3.org/2000/svg"
    width="98px"
    height="118px">
    <g>
        <path opacity="0.25"  d="M36.547,64.229V7.991c0-1.237,1.086-2.325,2.325-2.325h25.252
			c1.236,0,2.326,1.088,2.326,2.325v56.238h26.146c2.491,0,3.392,1.99,1.746,3.861l-41.596,47.34c-0.965,1.099-2.531,1.099-3.496,0
			L7.655,68.09c-1.645-1.871-0.745-3.861,1.746-3.861H36.547z"/>
        <path fill="#FFFFFF" stroke="#000000" d="M32.956,61.836V5.598
			c0-1.236,1.086-2.324,2.326-2.324h25.252c1.236,0,2.326,1.088,2.326,2.324v56.238h26.146c2.49,0,3.391,1.99,1.746,3.861
			l-41.596,47.34c-0.965,1.1-2.531,1.1-3.496,0L4.063,65.698c-1.645-1.871-0.744-3.861,1.746-3.861H32.956z"/>
	</g>
</svg>
