<?xml version="1.0" encoding="utf-8"?>
<!DOCTYPE svg PUBLIC "-//W3C//DTD SVG 1.1//EN" "http://www.w3.org/Graphics/SVG/1.1/DTD/svg11.dtd">
<svg
    xmlns="http://www.w3.org/2000/svg"
    width="120px"
    height="120px">
    <path stroke="MAROON" stroke-width="10" fill="RED" transform="scale(0.2)" d="M 100,527 C 131,454 198,394 215,317 178,236 110,168 82,77 c 9,-31 77,-4 96,2.58 56,26 78,91 108,141 46,-48 76,-170 139,-190 26,8.5 111,29.4 85.2,64.6 -54.6,70 -105,143 -141,223 34.8,75.1 95.9,136 130,217 -1.73,38 -75.9,18.3 -102,9.83 -39.3,-37.4 -61.6,-89.2 -99.8,-126 -42,27.8 -55.4,146 -104,149 -16.4,0.25 -88.3,-38.2 -94,-41.6"/>
</svg>
